<svg id="Layer_1" data-name="Layer 1" xmlns="http://www.w3.org/2000/svg" viewBox="0 0 245.53 300.11"><defs><style>.cls-1{fill:#302d7d;}.cls-1,.cls-3{fill-rule:evenodd;}.cls-2{fill:none;stroke:#1e1e1c;stroke-miterlimit:2.61;stroke-width:0.22px;}.cls-3{fill:#d9d9d9;}</style></defs><title>IRCTC</title><path class="cls-1" d="M76.72,230.06c-55.5-14.73-63.9-48.22-32.66-83.67L26.51,120.11c-53.07,54.74-20.93,107.81,50.21,110Zm154.92-102.8c15,55.42-9.81,79.45-56.14,70.12l-14,28.34c73.95,18.6,103.84-35.78,70.14-98.47ZM64.79,44.63c40.47-40.7,73.71-31.19,88.81,13.55l31.54-2C164.3-17.2,102.25-15.9,64.8,44.63Z"/><path class="cls-2" d="M76.72,230.06c-55.5-14.73-63.9-48.22-32.66-83.67L26.51,120.11c-53.07,54.74-20.93,107.81,50.21,110Zm154.92-102.8c15,55.42-9.81,79.45-56.14,70.12l-14,28.34c73.95,18.6,103.84-35.78,70.14-98.47ZM64.79,44.63c40.47-40.7,73.71-31.19,88.81,13.55l31.54-2C164.3-17.2,102.25-15.9,64.8,44.63Z"/><path class="cls-3" d="M144.73,249.19h0l-4.17-2.71a335.62,335.62,0,0,1-71.9-63,312.82,312.82,0,0,1-53.4-87.69c-.2-.48-.4-1-.59-1.45h0l2.68-1.36A336.85,336.85,0,0,1,107,61.78a312.88,312.88,0,0,1,106.82-2.67h0c-.08,1.67-.18,3.28-.28,4.92A335.83,335.83,0,0,1,195.7,155.6a312.89,312.89,0,0,1-51,93.54Zm16.56-23.46h0l-3.89-1.51a283.85,283.85,0,0,1-70.59-39.64,264.56,264.56,0,0,1-59.56-63.27l-.75-1.1h0c.66-.53,1.32-1.07,2-1.59A285,285,0,0,1,97.27,77.15a264.88,264.88,0,0,1,88-21h0c.23,1.38.44,2.75.64,4.17a284.24,284.24,0,0,1,1.22,79,265.05,265.05,0,0,1-25.83,86.41Z"/><path class="cls-1" d="M90.05,92.5h31.51c8.63,2.13,13.83,6.67,16.13,11.91a17.78,17.78,0,0,1,1.36,8.91,20.27,20.27,0,0,1-3.15,8.86c-3.77,5.83-10.75,10.24-20.24,10.4-5.54-1-8.33,4.95-3.64,9.49l31.58,29.3H90.05a2.94,2.94,0,0,1-2.93-2.93v-73A2.94,2.94,0,0,1,90.05,92.5Zm52.81,0h22a2.94,2.94,0,0,1,2.92,2.92v73a2.94,2.94,0,0,1-2.92,2.93h-5.13l-32.11-29.79a33.2,33.2,0,0,0,17.5-13.5,31.22,31.22,0,0,0,4.82-13.69,28.38,28.38,0,0,0-7.06-21.89Z"/><path class="cls-2" d="M90.05,92.5h31.51c8.63,2.13,13.83,6.67,16.13,11.91a17.78,17.78,0,0,1,1.36,8.91,20.27,20.27,0,0,1-3.15,8.86c-3.77,5.83-10.75,10.24-20.24,10.4-5.54-1-8.33,4.95-3.64,9.49l31.58,29.3H90.05a2.94,2.94,0,0,1-2.93-2.93v-73A2.94,2.94,0,0,1,90.05,92.5Zm52.81,0h22a2.94,2.94,0,0,1,2.92,2.92v73a2.94,2.94,0,0,1-2.92,2.93h-5.13l-32.11-29.79a33.2,33.2,0,0,0,17.5-13.5,31.22,31.22,0,0,0,4.82-13.69,28.38,28.38,0,0,0-7.06-21.89Z"/><polygon class="cls-1" points="25.03 298.88 25.03 254.94 39.4 254.94 39.4 298.88 25.03 298.88 25.03 298.88"/><path class="cls-1" d="M61.93,273.82h6.42q3.38,0,4.65-.9a3.66,3.66,0,0,0,1.28-3.19A3.71,3.71,0,0,0,73,266.5c-.86-.61-2.5-.91-5-.91H61.93ZM48,298.88V254.93H69c6.59,0,11.28,1,14.11,3s4.21,5.2,4.21,9.69a11.93,11.93,0,0,1-1.73,6.67,11.42,11.42,0,0,1-5.36,4.19,8.38,8.38,0,0,1,5.34,3.07c1.12,1.52,1.67,3.75,1.8,6.67l.23,6.11a.38.38,0,0,0,0,.15c.05,1.75.47,2.67,1.25,2.75v1.67H74.7c-.25-1.06-.45-2-.58-2.76a11.25,11.25,0,0,1-.19-1.83v-4.39q0-3.39-1.35-4.79c-.9-.92-2.44-1.38-4.65-1.38h-6v15.15Z"/><path class="cls-1" d="M123.13,281.84H136.5q-.57,8.7-6.11,13.49t-14.94,4.78q-10.58,0-16.63-6.19t-6.06-17q0-10.76,6-16.95t16.35-6.21q9.56,0,15,4.62c3.65,3.07,5.7,7.5,6.14,13.17H122.76a6.66,6.66,0,0,0-6.48-6.85,5.81,5.81,0,0,0-1,0,7.05,7.05,0,0,0-6.22,3q-2.08,3-2.08,9.17t2.21,9.07a7.51,7.51,0,0,0,6.48,3.08,7.17,7.17,0,0,0,5.2-1.89,8.2,8.2,0,0,0,2.25-5.37Z"/><polygon class="cls-1" points="151.68 298.88 151.68 266.52 139.03 266.52 139.03 254.94 178.19 254.94 178.19 266.52 165.8 266.52 165.8 298.88 151.68 298.88 151.68 298.88"/><path class="cls-1" d="M211.51,281.84h13.38q-.6,8.7-6.13,13.49t-14.94,4.78q-10.57,0-16.62-6.19t-6.06-17q0-10.76,6-16.95t16.36-6.21q9.54,0,15,4.62c3.64,3.07,5.69,7.5,6.13,13.17H211.14a6.67,6.67,0,0,0-6.48-6.85,5.81,5.81,0,0,0-1,0,7,7,0,0,0-6.23,3q-2.07,3-2.07,9.17c0,4.09.73,7.11,2.21,9.07a7.48,7.48,0,0,0,6.47,3.08,7.15,7.15,0,0,0,5.21-1.89,8.34,8.34,0,0,0,2.25-5.37Z"/></svg>